HIERARCHY
ROOT Hips
{
	OFFSET -80.168388 91.772041 -268.984589
	CHANNELS 6 Xposition Yposition Zposition Xrotation Yrotation Zrotation 
	JOINT RightUpLeg
	{
		OFFSET 0.103457 1.857818 10.548502
		CHANNELS 3 Xrotation Yrotation Zrotation
		JOINT RightLeg
		{
			OFFSET 43.500000 -0.000011 -0.000004
			CHANNELS 3 Xrotation Yrotation Zrotation
			JOINT RightFoot
			{
				OFFSET 42.372192 -0.000004 -0.000008
				CHANNELS 3 Xrotation Yrotation Zrotation
				JOINT RightToe
				{
					OFFSET 17.300014 0.000006 0.000001
					CHANNELS 3 Xrotation Yrotation Zrotation
					End Site
					{
						OFFSET 0.000000 0.000000 0.000000
					}
				}
			}
		}
	}
	JOINT LeftUpLeg
	{
		OFFSET 0.103457 1.857817 -10.548505
		CHANNELS 3 Xrotation Yrotation Zrotation
		JOINT LeftLeg
		{
			OFFSET 43.500046 -0.000004 0.000011
			CHANNELS 3 Xrotation Yrotation Zrotation
			JOINT LeftFoot
			{
				OFFSET 42.372257 0.000000 0.000015
				CHANNELS 3 Xrotation Yrotation Zrotation
				JOINT LeftToe
				{
					OFFSET 17.300003 -0.000000 0.000002
					CHANNELS 3 Xrotation Yrotation Zrotation
					End Site
					{
						OFFSET 0.000000 0.000000 0.000000
					}
				}
			}
		}
	}
	JOINT Spine
	{
		OFFSET 6.901961 -2.603721 -0.000001
		CHANNELS 3 Xrotation Yrotation Zrotation
		JOINT Spine1
		{
			OFFSET 12.588108 0.000002 -0.000001
			CHANNELS 3 Xrotation Yrotation Zrotation
			JOINT Spine2
			{
				OFFSET 12.343199 -0.000020 0.000006
				CHANNELS 3 Xrotation Yrotation Zrotation
				JOINT Neck
				{
					OFFSET 25.832905 0.000017 0.000000
					CHANNELS 3 Xrotation Yrotation Zrotation
					JOINT Head
					{
						OFFSET 11.766604 -0.000006 0.000004
						CHANNELS 3 Xrotation Yrotation Zrotation
						End Site
						{
							OFFSET 0.000000 0.000000 0.000000
						}
					}
				}
				JOINT RightShoulder
				{
					OFFSET 19.745903 -1.480350 6.000100
					CHANNELS 3 Xrotation Yrotation Zrotation
					JOINT RightArm
					{
						OFFSET 11.284130 -0.000016 -0.000016
						CHANNELS 3 Xrotation Yrotation Zrotation
						JOINT RightForeArm
						{
							OFFSET 33.000046 0.000004 0.000031
							CHANNELS 3 Xrotation Yrotation Zrotation
							JOINT RightHand
							{
								OFFSET 25.199999 0.000027 0.000001
								CHANNELS 3 Xrotation Yrotation Zrotation
								End Site
								{
									OFFSET 0.000000 0.000000 0.000000
								}
							}
						}
					}
				}
				JOINT LeftShoulder
				{
					OFFSET 19.746094 -1.480375 -6.000080
					CHANNELS 3 Xrotation Yrotation Zrotation
					JOINT LeftArm
					{
						OFFSET 11.284131 -0.000016 -0.000017
						CHANNELS 3 Xrotation Yrotation Zrotation
						JOINT LeftForeArm
						{
							OFFSET 33.000095 0.000009 0.000020
							CHANNELS 3 Xrotation Yrotation Zrotation
							JOINT LeftHand
							{
								OFFSET 25.199789 0.000132 0.000423
								CHANNELS 3 Xrotation Yrotation Zrotation
								End Site
								{
									OFFSET 0.000000 0.000000 0.000000
								}
							}
						}
					}
				}
			}
		}
	}
}
MOTION
Frames: 11
Frame Time: 0.033333
-298.162506 88.325394 195.116501 93.764311 -3.091454 -144.345707 175.658382 -11.848498 -170.764756 -25.072426 -3.983095 1.430909 83.867599 -2.666117 -8.321068 21.454557 0.003106 0.000018 164.959669 7.465700 141.425378 -31.654269 2.794793 -8.923265 75.899398 7.818496 5.161768 21.454551 -0.003085 -0.000001 8.934731 0.553840 -1.029545 7.846655 1.176137 -2.019318 7.528697 1.163786 -2.026385 14.305645 6.215451 -3.473531 -11.510636 -4.673622 -1.889978 -165.610805 -74.078340 -16.168084 -10.144804 59.999804 24.493904 -25.634219 -11.500948 0.953625 9.740934 5.470698 24.632720 -172.785713 76.686611 8.868889 -48.573932 -50.675540 4.584635 -35.998567 14.713477 -1.339746 8.323541 5.578335 -44.185529 
-300.856506 88.830582 193.561493 92.687819 -2.484244 -149.489099 175.807280 -10.869512 -175.753335 -23.801529 -5.085001 1.050636 83.089989 -1.988527 -6.301230 21.454560 0.003106 0.000017 161.805091 8.501904 146.542364 -33.181151 2.804574 -4.925668 73.059617 4.362047 2.854037 21.454553 -0.003089 -0.000000 8.895789 0.395699 -1.108946 7.770638 0.864867 -2.188893 7.452748 0.851496 -2.194076 13.971277 5.937302 -3.813847 -12.024592 -3.960739 -2.445392 -166.435905 -75.165364 -15.317401 -9.901494 57.901112 22.923411 -26.645958 -11.877821 0.994500 10.384697 5.720759 27.073461 -172.173988 76.626554 9.493107 -44.416119 -51.448263 3.782962 -39.479518 15.239559 -1.459846 7.693805 5.821437 -39.403327 
-303.297699 89.166031 192.054306 91.969460 -2.203197 -154.281980 176.186697 -9.607896 179.166722 -22.626076 -5.236141 0.856721 82.540521 -1.547386 -4.828263 21.454557 0.003107 0.000018 158.977352 9.239507 155.389741 -36.806329 1.715742 0.479001 74.257701 0.320937 2.369523 21.454551 -0.003094 0.000004 8.920902 0.270381 -1.190030 7.822715 0.620496 -2.359089 7.504891 0.606107 -2.362794 13.462636 5.384821 -4.056540 -12.000632 -3.552330 -2.829237 -167.265500 -76.079257 -14.465598 -8.694595 54.855595 23.449911 -28.344920 -12.187669 1.044037 10.126975 6.425771 27.009252 -171.452706 77.197373 10.231699 -40.190049 -52.258983 2.632118 -42.446576 15.167485 -1.534679 7.393418 5.872376 -32.515816 
-305.484314 89.368057 190.546097 91.638005 -2.340019 -159.195986 177.051071 -7.841904 175.682479 -21.119133 -5.208770 -0.343165 82.040810 -0.530021 -3.975851 21.454551 0.003111 0.000019 157.144198 9.632900 164.365907 -40.991660 -0.528407 5.409245 76.216018 -3.016027 2.982483 21.454550 -0.003088 -0.000002 8.982004 0.096044 -1.200504 7.948307 0.274234 -2.391562 7.630515 0.259658 -2.393179 13.226988 4.739933 -4.159840 -11.624230 -3.403359 -3.018386 -166.935684 -76.547064 -14.801018 -7.656703 51.222901 24.745290 -29.364745 -12.254362 1.067108 9.007741 5.994480 23.969470 -169.662992 77.794721 12.057918 -36.711925 -52.620378 1.052873 -43.731481 14.724638 -1.541720 7.130305 5.784170 -25.527033 
-307.389587 89.418907 189.061005 91.568234 -2.724157 -164.725107 178.346621 -5.932997 173.555995 -19.140188 -5.625488 -2.610308 81.476405 1.173439 -3.419291 21.454558 0.003109 0.000017 156.370446 9.847702 170.795943 -44.700542 -2.025237 8.190238 77.456401 -5.260684 1.874281 21.454551 -0.003091 -0.000004 8.993490 -0.151180 -1.088350 7.976308 -0.227042 -2.184488 7.658467 -0.240362 -2.183084 13.525905 4.119727 -4.016588 -11.282767 -3.429693 -2.918364 -164.161589 -76.550575 -17.633400 -6.822095 47.969399 25.440202 -29.378112 -12.231145 1.065858 7.988670 3.858852 19.680729 -167.567804 78.157862 14.192293 -34.219965 -52.585285 -0.787432 -42.953895 14.463839 -1.502627 6.868126 5.659852 -20.618560 
-309.036713 89.455833 187.629807 91.668645 -2.742410 -170.644709 179.692073 -4.381897 172.291016 -16.827657 -6.161363 -5.550257 80.844981 3.286168 -3.100081 21.454555 0.003109 0.000018 156.472339 9.612702 174.511292 -47.693643 -2.236708 8.109662 77.900493 -5.035784 2.498776 21.454550 -0.003091 0.000002 8.910245 -0.322007 -0.917399 7.812457 -0.581393 -1.854407 7.494535 -0.592715 -1.850869 14.017190 3.554024 -3.594020 -11.011027 -3.611235 -2.477614 -159.433008 -76.101688 -22.467897 -5.600596 45.929006 24.646703 -29.022956 -12.438756 1.072635 7.853728 0.884189 16.292496 -166.234291 78.441711 15.549288 -32.545510 -52.452468 -2.399726 -40.613633 14.554322 -1.444805 6.904950 5.682188 -18.913458 
-310.466614 89.372162 186.309692 91.750252 -2.728326 -176.188104 -179.876706 -2.929200 171.596536 -15.820064 -6.401105 -8.530643 80.777096 5.353055 -3.068949 21.454555 0.003107 0.000018 157.703385 9.566300 176.964601 -49.522290 -1.423583 7.142337 78.324518 -4.391131 2.436855 21.454558 -0.003092 0.000000 8.754161 -0.441069 -0.841784 7.501872 -0.826693 -1.710358 7.183877 -0.837142 -1.705341 14.329706 3.185181 -3.019123 -10.696186 -3.920404 -1.820054 -155.170095 -75.371021 -26.838112 -3.566795 44.994899 22.606301 -28.891734 -12.907733 1.100454 8.398550 -1.757946 14.235845 -165.375300 78.561826 16.423198 -31.374747 -52.298536 -3.235776 -37.439679 14.684430 -1.372397 7.397206 6.107381 -19.852901 
-311.751892 89.381927 185.052902 91.818370 -2.608573 179.155821 179.676527 -1.803894 170.873957 -16.117655 -6.413295 -10.928090 81.140953 7.005500 -3.080602 21.454558 0.003113 0.000018 160.199273 9.931503 179.865560 -49.797475 -0.409175 6.260649 78.478156 -3.728693 2.691575 21.454555 -0.003090 0.000001 8.573780 -0.480766 -0.876482 7.142024 -0.906601 -1.780927 6.824027 -0.917475 -1.775427 14.522451 3.176362 -2.461369 -10.337730 -4.347293 -1.126257 -152.988601 -74.776542 -29.083089 -1.268986 44.764206 20.318512 -28.829508 -13.310324 1.125214 8.982324 -3.190973 12.085686 -163.997896 78.238007 17.827784 -30.336268 -52.134482 -3.032073 -34.031168 14.607254 -1.288001 8.232675 7.008643 -21.703384 
-312.884888 89.534576 183.874695 91.853975 -2.271708 175.117977 178.984356 -1.098296 169.517003 -16.752772 -6.181934 -12.598082 81.486363 8.163740 -3.067800 21.454562 0.003108 0.000017 163.946246 10.253494 -176.287073 -48.281518 0.263037 6.865462 79.025753 -4.165119 2.719965 21.454550 -0.003093 -0.000000 8.394067 -0.436782 -0.908531 6.782045 -0.819677 -1.841048 6.464085 -0.830915 -1.836072 14.732011 3.424643 -1.970304 -9.966761 -4.889128 -0.460959 -152.289586 -74.528292 -29.804896 0.452093 44.986481 18.870686 -28.484163 -13.441796 1.127326 9.307692 -2.906937 8.892765 -162.043588 77.577917 19.825502 -28.858157 -52.150236 -2.151072 -31.065480 14.466093 -1.216357 9.350356 8.174524 -22.642446 
-313.862488 89.773827 182.844101 91.775722 -1.688979 171.018921 178.483430 -0.709901 167.580645 -16.932152 -5.630473 -14.002951 81.494136 9.100845 -3.219297 21.454555 0.003113 0.000017 168.131295 9.899309 -172.544621 -45.348508 0.392087 8.357011 79.026832 -5.078481 3.283337 21.454550 -0.003102 -0.000000 8.222335 -0.322927 -0.828412 6.436258 -0.599398 -1.673446 6.118307 -0.609629 -1.669801 14.845657 3.697160 -1.460513 -9.593148 -5.513700 0.247796 -151.582511 -74.423572 -30.531321 1.268902 45.613100 18.676411 -28.230567 -13.363411 1.117693 9.449681 -1.221899 6.014256 -160.433808 77.052204 21.473712 -26.415249 -52.486568 -1.434497 -29.292240 14.420541 -1.179020 10.880143 9.185169 -21.716303 
-314.729492 90.089180 181.961197 91.519201 -0.932717 166.522211 178.229156 -0.558105 165.535508 -16.473612 -4.956466 -15.594261 81.125025 10.120713 -3.580400 21.454560 0.003108 0.000017 172.461703 8.869995 -169.840153 -41.062004 0.538322 9.743723 78.338342 -5.929869 3.752019 21.454548 -0.003098 -0.000000 8.068847 -0.167029 -0.638485 6.126571 -0.300119 -1.284878 5.808560 -0.308009 -1.283046 14.762631 3.907694 -0.834877 -9.288786 -6.134254 1.079874 -150.398635 -74.153909 -31.750694 1.545401 46.541008 19.487004 -28.856392 -13.285210 1.124095 9.500340 0.816497 5.695134 -159.749792 76.931030 22.173328 -23.012987 -53.014805 -1.745566 -28.910855 14.379181 -1.169261 12.765242 9.780091 -18.883262 
